<?xml version="1.0" encoding="UTF-8" standalone="no"?>
<!DOCTYPE svg PUBLIC "-//W3C//DTD SVG 1.1//EN"
 "http://www.w3.org/Graphics/SVG/1.1/DTD/svg11.dtd">
<!-- Generated by graphviz version 2.40.1 (20161225.0304)
 -->
<!-- Title: root Pages: 1 -->
<svg width="1258pt" height="476pt"
 viewBox="0.00 0.00 1258.07 476.00" xmlns="http://www.w3.org/2000/svg" xmlns:xlink="http://www.w3.org/1999/xlink">
<g id="graph0" class="graph" transform="scale(1 1) rotate(0) translate(4 472)">
<title>root</title>
<polygon fill="#ffffff" stroke="transparent" points="-4,4 -4,-472 1254.0736,-472 1254.0736,4 -4,4"/>
<!-- root -->
<g id="node1" class="node">
<title>root</title>
<polygon fill="#ffa500" stroke="#000000" points="850,-468 796,-468 796,-432 850,-432 850,-468"/>
<text text-anchor="middle" x="823" y="-447.2" font-family="Times,serif" font-size="11.00" fill="#000000">root</text>
</g>
<!-- wait for goal -->
<g id="node2" class="node">
<title>wait for goal</title>
<polygon fill="#ffa500" stroke="#000000" points="567,-396 493,-396 493,-360 567,-360 567,-396"/>
<text text-anchor="middle" x="530" y="-375.2" font-family="Times,serif" font-size="11.00" fill="#000000">wait for goal</text>
</g>
<!-- root&#45;&gt;wait for goal -->
<g id="edge1" class="edge">
<title>root&#45;&gt;wait for goal</title>
<path fill="none" stroke="#000000" d="M795.9604,-443.3555C746.1728,-431.121 639.4284,-404.8903 577.3742,-389.6414"/>
<polygon fill="#000000" stroke="#000000" points="577.9899,-386.1887 567.4435,-387.2011 576.3194,-392.9864 577.9899,-386.1887"/>
</g>
<!-- cleanup -->
<g id="node8" class="node">
<title>cleanup</title>
<ellipse fill="#c0c0c0" stroke="#000000" cx="715" cy="-378" rx="30.8374" ry="18"/>
<text text-anchor="middle" x="715" y="-375.2" font-family="Times,serif" font-size="11.00" fill="#000000">cleanup</text>
</g>
<!-- root&#45;&gt;cleanup -->
<g id="edge7" class="edge">
<title>root&#45;&gt;cleanup</title>
<path fill="none" stroke="#000000" d="M795.747,-431.8314C779.9296,-421.2864 760.0161,-408.0107 743.9226,-397.2817"/>
<polygon fill="#000000" stroke="#000000" points="745.687,-394.2516 735.4251,-391.6167 741.8041,-400.0759 745.687,-394.2516"/>
</g>
<!-- process move goal -->
<g id="node9" class="node">
<title>process move goal</title>
<ellipse fill="#c0c0c0" stroke="#000000" cx="823" cy="-378" rx="59.5649" ry="18"/>
<text text-anchor="middle" x="823" y="-375.2" font-family="Times,serif" font-size="11.00" fill="#000000">process move goal</text>
</g>
<!-- root&#45;&gt;process move goal -->
<g id="edge8" class="edge">
<title>root&#45;&gt;process move goal</title>
<path fill="none" stroke="#000000" d="M823,-431.8314C823,-424.131 823,-414.9743 823,-406.4166"/>
<polygon fill="#000000" stroke="#000000" points="826.5001,-406.4132 823,-396.4133 819.5001,-406.4133 826.5001,-406.4132"/>
</g>
<!-- move robot -->
<g id="node37" class="node">
<title>move robot</title>
<ellipse fill="#c0c0c0" stroke="#000000" cx="940" cy="-378" rx="39.8775" ry="18"/>
<text text-anchor="middle" x="940" y="-375.2" font-family="Times,serif" font-size="11.00" fill="#000000">move robot</text>
</g>
<!-- root&#45;&gt;move robot -->
<g id="edge36" class="edge">
<title>root&#45;&gt;move robot</title>
<path fill="none" stroke="#000000" d="M850.1362,-433.3008C867.1519,-422.8296 889.1938,-409.2654 907.1889,-398.1914"/>
<polygon fill="#000000" stroke="#000000" points="909.5,-400.8789 916.1823,-392.6571 905.8313,-394.9173 909.5,-400.8789"/>
</g>
<!-- send result -->
<g id="node42" class="node">
<title>send result</title>
<ellipse fill="#c0c0c0" stroke="#000000" cx="1037" cy="-378" rx="39.1741" ry="18"/>
<text text-anchor="middle" x="1037" y="-375.2" font-family="Times,serif" font-size="11.00" fill="#000000">send result</text>
</g>
<!-- root&#45;&gt;send result -->
<g id="edge41" class="edge">
<title>root&#45;&gt;send result</title>
<path fill="none" stroke="#000000" d="M850.1508,-441.5737C883.1253,-431.2468 940.3717,-413.0179 989,-396 991.717,-395.0492 994.5137,-394.0513 997.3265,-393.0334"/>
<polygon fill="#000000" stroke="#000000" points="998.6779,-396.2658 1006.8599,-389.5349 996.2663,-389.6943 998.6779,-396.2658"/>
</g>
<!-- tf -->
<g id="node3" class="node">
<title>tf</title>
<ellipse fill="#c0c0c0" stroke="#000000" cx="308" cy="-306" rx="27" ry="18"/>
<text text-anchor="middle" x="308" y="-303.2" font-family="Times,serif" font-size="11.00" fill="#000000">tf</text>
</g>
<!-- wait for goal&#45;&gt;tf -->
<g id="edge2" class="edge">
<title>wait for goal&#45;&gt;tf</title>
<path fill="none" stroke="#000000" d="M492.9947,-369.3624C454.9823,-360.0038 394.4118,-343.733 344,-324 342.1455,-323.2741 340.2578,-322.4867 338.3671,-321.6606"/>
<polygon fill="#000000" stroke="#000000" points="339.5734,-318.3614 329.0307,-317.3116 336.6177,-324.7068 339.5734,-318.3614"/>
</g>
<!-- js1 -->
<g id="node4" class="node">
<title>js1</title>
<ellipse fill="#c0c0c0" stroke="#000000" cx="380" cy="-306" rx="27" ry="18"/>
<text text-anchor="middle" x="380" y="-303.2" font-family="Times,serif" font-size="11.00" fill="#000000">js1</text>
</g>
<!-- wait for goal&#45;&gt;js1 -->
<g id="edge3" class="edge">
<title>wait for goal&#45;&gt;js1</title>
<path fill="none" stroke="#000000" d="M492.9391,-360.6884C470.5957,-350.191 441.5981,-336.4605 416,-324 414.2565,-323.1513 412.468,-322.2751 410.6647,-321.3873"/>
<polygon fill="#000000" stroke="#000000" points="412.1791,-318.2317 401.6651,-316.9258 409.07,-324.5033 412.1791,-318.2317"/>
</g>
<!-- pybullet updater -->
<g id="node5" class="node">
<title>pybullet updater</title>
<ellipse fill="#c0c0c0" stroke="#000000" cx="478" cy="-306" rx="52.8356" ry="18"/>
<text text-anchor="middle" x="478" y="-303.2" font-family="Times,serif" font-size="11.00" fill="#000000">pybullet updater</text>
</g>
<!-- wait for goal&#45;&gt;pybullet updater -->
<g id="edge4" class="edge">
<title>wait for goal&#45;&gt;pybullet updater</title>
<path fill="none" stroke="#000000" d="M516.8782,-359.8314C510.7969,-351.411 503.458,-341.2495 496.8022,-332.0338"/>
<polygon fill="#000000" stroke="#000000" points="499.6298,-329.971 490.9375,-323.9134 493.955,-334.0695 499.6298,-329.971"/>
</g>
<!-- has goal -->
<g id="node6" class="node">
<title>has goal</title>
<ellipse fill="#c0c0c0" stroke="#000000" cx="581" cy="-306" rx="31.7423" ry="18"/>
<text text-anchor="middle" x="581" y="-303.2" font-family="Times,serif" font-size="11.00" fill="#000000">has goal</text>
</g>
<!-- wait for goal&#45;&gt;has goal -->
<g id="edge5" class="edge">
<title>wait for goal&#45;&gt;has goal</title>
<path fill="none" stroke="#000000" d="M542.8695,-359.8314C549.0146,-351.1559 556.469,-340.632 563.1509,-331.1987"/>
<polygon fill="#000000" stroke="#000000" points="566.0864,-333.1096 569.0105,-322.9263 560.3742,-329.0635 566.0864,-333.1096"/>
</g>
<!-- js2 -->
<g id="node7" class="node">
<title>js2</title>
<ellipse fill="#c0c0c0" stroke="#000000" cx="658" cy="-306" rx="27" ry="18"/>
<text text-anchor="middle" x="658" y="-303.2" font-family="Times,serif" font-size="11.00" fill="#000000">js2</text>
</g>
<!-- wait for goal&#45;&gt;js2 -->
<g id="edge6" class="edge">
<title>wait for goal&#45;&gt;js2</title>
<path fill="none" stroke="#000000" d="M562.2998,-359.8314C582.6311,-348.395 608.6726,-333.7467 628.4559,-322.6185"/>
<polygon fill="#000000" stroke="#000000" points="630.337,-325.5762 637.3368,-317.623 626.9051,-319.4752 630.337,-325.5762"/>
</g>
<!-- planning -->
<g id="node10" class="node">
<title>planning</title>
<ellipse fill="#c0c0c0" stroke="#000000" cx="735" cy="-306" rx="32.4445" ry="18"/>
<text text-anchor="middle" x="735" y="-303.2" font-family="Times,serif" font-size="11.00" fill="#000000">planning</text>
</g>
<!-- process move goal&#45;&gt;planning -->
<g id="edge9" class="edge">
<title>process move goal&#45;&gt;planning</title>
<path fill="none" stroke="#000000" d="M802.1452,-360.937C789.8549,-350.8813 774.1965,-338.0699 761.0929,-327.3487"/>
<polygon fill="#000000" stroke="#000000" points="763.2731,-324.6103 753.3172,-320.9868 758.8404,-330.028 763.2731,-324.6103"/>
</g>
<!-- set move goal -->
<g id="node36" class="node">
<title>set move goal</title>
<ellipse fill="#c0c0c0" stroke="#000000" cx="832" cy="-306" rx="46.8089" ry="18"/>
<text text-anchor="middle" x="832" y="-303.2" font-family="Times,serif" font-size="11.00" fill="#000000">set move goal</text>
</g>
<!-- process move goal&#45;&gt;set move goal -->
<g id="edge35" class="edge">
<title>process move goal&#45;&gt;set move goal</title>
<path fill="none" stroke="#000000" d="M825.2711,-359.8314C826.2336,-352.131 827.3782,-342.9743 828.4479,-334.4166"/>
<polygon fill="#000000" stroke="#000000" points="831.9309,-334.7702 829.6983,-324.4133 824.9849,-333.9019 831.9309,-334.7702"/>
</g>
<!-- goal_set? -->
<g id="node11" class="node">
<title>goal_set?</title>
<ellipse fill="#c0c0c0" stroke="#000000" cx="618" cy="-234" rx="35.4579" ry="18"/>
<text text-anchor="middle" x="618" y="-231.2" font-family="Times,serif" font-size="11.00" fill="#000000">goal_set?</text>
</g>
<!-- planning&#45;&gt;goal_set? -->
<g id="edge10" class="edge">
<title>planning&#45;&gt;goal_set?</title>
<path fill="none" stroke="#000000" d="M712.9932,-292.4574C695.0025,-281.3862 669.3451,-265.597 649.2295,-253.2182"/>
<polygon fill="#000000" stroke="#000000" points="651.0571,-250.2332 640.7062,-247.973 647.3884,-256.1949 651.0571,-250.2332"/>
</g>
<!-- planning I -->
<g id="node12" class="node">
<title>planning I</title>
<polygon fill="#ffa500" stroke="#000000" points="732.5,-252 671.5,-252 671.5,-216 732.5,-216 732.5,-252"/>
<text text-anchor="middle" x="702" y="-231.2" font-family="Times,serif" font-size="11.00" fill="#000000">planning I</text>
</g>
<!-- planning&#45;&gt;planning I -->
<g id="edge11" class="edge">
<title>planning&#45;&gt;planning I</title>
<path fill="none" stroke="#000000" d="M726.8427,-288.2022C723.1423,-280.1287 718.6823,-270.3976 714.5684,-261.422"/>
<polygon fill="#000000" stroke="#000000" points="717.641,-259.7255 710.2927,-252.0931 711.2776,-262.6421 717.641,-259.7255"/>
</g>
<!-- post planning -->
<g id="node33" class="node">
<title>post planning</title>
<ellipse fill="#c0c0c0" stroke="#000000" cx="1003" cy="-234" rx="45.2009" ry="18"/>
<text text-anchor="middle" x="1003" y="-231.2" font-family="Times,serif" font-size="11.00" fill="#000000">post planning</text>
</g>
<!-- planning&#45;&gt;post planning -->
<g id="edge32" class="edge">
<title>planning&#45;&gt;post planning</title>
<path fill="none" stroke="#000000" d="M759.8706,-294.2291C765.1286,-291.9824 770.6934,-289.7799 776,-288 835.2179,-268.1378 905.4483,-252.6125 951.9441,-243.4051"/>
<polygon fill="#000000" stroke="#000000" points="952.6397,-246.8354 961.782,-241.4811 951.2961,-239.9656 952.6397,-246.8354"/>
</g>
<!-- update constraints -->
<g id="node13" class="node">
<title>update constraints</title>
<ellipse fill="#c0c0c0" stroke="#000000" cx="173" cy="-162" rx="58.16" ry="18"/>
<text text-anchor="middle" x="173" y="-159.2" font-family="Times,serif" font-size="11.00" fill="#000000">update constraints</text>
</g>
<!-- planning I&#45;&gt;update constraints -->
<g id="edge12" class="edge">
<title>planning I&#45;&gt;update constraints</title>
<path fill="none" stroke="#000000" d="M671.3666,-218.9792C668.2524,-217.828 665.0958,-216.8036 662,-216 479.8017,-168.7043 425.4016,-212.5475 240,-180 235.2103,-179.1592 230.2649,-178.1358 225.332,-177.0085"/>
<polygon fill="#000000" stroke="#000000" points="225.8209,-173.5257 215.278,-174.5734 224.1731,-180.3291 225.8209,-173.5257"/>
</g>
<!-- planning II -->
<g id="node14" class="node">
<title>planning II</title>
<ellipse fill="#c0c0c0" stroke="#000000" cx="288" cy="-162" rx="39.1741" ry="18"/>
<text text-anchor="middle" x="288" y="-159.2" font-family="Times,serif" font-size="11.00" fill="#000000">planning II</text>
</g>
<!-- planning I&#45;&gt;planning II -->
<g id="edge13" class="edge">
<title>planning I&#45;&gt;planning II</title>
<path fill="none" stroke="#000000" d="M671.3451,-219.0598C668.2353,-217.8923 665.0855,-216.8421 662,-216 521.3731,-177.622 477.7842,-213.8531 336,-180 332.981,-179.2792 329.8937,-178.4207 326.8128,-177.4754"/>
<polygon fill="#000000" stroke="#000000" points="327.6793,-174.0747 317.0855,-174.223 325.4596,-180.7135 327.6793,-174.0747"/>
</g>
<!-- time for zero velocity -->
<g id="node28" class="node">
<title>time for zero velocity</title>
<ellipse fill="#c0c0c0" stroke="#000000" cx="413" cy="-162" rx="67.9024" ry="18"/>
<text text-anchor="middle" x="413" y="-159.2" font-family="Times,serif" font-size="11.00" fill="#000000">time for zero velocity</text>
</g>
<!-- planning I&#45;&gt;time for zero velocity -->
<g id="edge27" class="edge">
<title>planning I&#45;&gt;time for zero velocity</title>
<path fill="none" stroke="#000000" d="M671.2538,-219.3655C668.1625,-218.1361 665.042,-216.9879 662,-216 587.3042,-191.7423 565.6625,-197.0516 489,-180 483.9993,-178.8877 478.8193,-177.7117 473.6218,-176.515"/>
<polygon fill="#000000" stroke="#000000" points="474.1802,-173.0516 463.6478,-174.1994 472.5972,-179.8703 474.1802,-173.0516"/>
</g>
<!-- append zero velocity -->
<g id="node29" class="node">
<title>append zero velocity</title>
<ellipse fill="#c0c0c0" stroke="#000000" cx="564" cy="-162" rx="65.5917" ry="18"/>
<text text-anchor="middle" x="564" y="-159.2" font-family="Times,serif" font-size="11.00" fill="#000000">append zero velocity</text>
</g>
<!-- planning I&#45;&gt;append zero velocity -->
<g id="edge28" class="edge">
<title>planning I&#45;&gt;append zero velocity</title>
<path fill="none" stroke="#000000" d="M671.3733,-218.0209C651.363,-207.5807 625.0393,-193.8466 603.4644,-182.5901"/>
<polygon fill="#000000" stroke="#000000" points="605.0259,-179.4571 594.5411,-177.9345 601.7879,-185.6632 605.0259,-179.4571"/>
</g>
<!-- log zero velocity -->
<g id="node30" class="node">
<title>log zero velocity</title>
<ellipse fill="#c0c0c0" stroke="#000000" cx="702" cy="-162" rx="54.9444" ry="18"/>
<text text-anchor="middle" x="702" y="-159.2" font-family="Times,serif" font-size="11.00" fill="#000000">log zero velocity</text>
</g>
<!-- planning I&#45;&gt;log zero velocity -->
<g id="edge29" class="edge">
<title>planning I&#45;&gt;log zero velocity</title>
<path fill="none" stroke="#000000" d="M702,-215.8314C702,-208.131 702,-198.9743 702,-190.4166"/>
<polygon fill="#000000" stroke="#000000" points="705.5001,-190.4132 702,-180.4133 698.5001,-190.4133 705.5001,-190.4132"/>
</g>
<!-- visualization* -->
<g id="node31" class="node">
<title>visualization*</title>
<ellipse fill="#c0c0c0" stroke="#000000" cx="822" cy="-162" rx="46.8089" ry="18"/>
<text text-anchor="middle" x="822" y="-159.2" font-family="Times,serif" font-size="11.00" fill="#000000">visualization*</text>
</g>
<!-- planning I&#45;&gt;visualization* -->
<g id="edge30" class="edge">
<title>planning I&#45;&gt;visualization*</title>
<path fill="none" stroke="#000000" d="M732.2811,-215.8314C749.1909,-205.6854 770.3141,-193.0115 787.8161,-182.5103"/>
<polygon fill="#000000" stroke="#000000" points="789.8227,-185.3881 796.5969,-177.2418 786.2212,-179.3856 789.8227,-185.3881"/>
</g>
<!-- cpi marker* -->
<g id="node32" class="node">
<title>cpi marker*</title>
<ellipse fill="#c0c0c0" stroke="#000000" cx="929" cy="-162" rx="42.1875" ry="18"/>
<text text-anchor="middle" x="929" y="-159.2" font-family="Times,serif" font-size="11.00" fill="#000000">cpi marker*</text>
</g>
<!-- planning I&#45;&gt;cpi marker* -->
<g id="edge31" class="edge">
<title>planning I&#45;&gt;cpi marker*</title>
<path fill="none" stroke="#000000" d="M732.6455,-225.0184C767.8566,-214.6013 827.3088,-196.714 878,-180 880.9371,-179.0316 883.9627,-178.0144 887.0053,-176.977"/>
<polygon fill="#000000" stroke="#000000" points="888.3851,-180.2034 896.6941,-173.6299 886.0994,-173.587 888.3851,-180.2034"/>
</g>
<!-- goal canceled -->
<g id="node15" class="node">
<title>goal canceled</title>
<ellipse fill="#c0c0c0" stroke="#000000" cx="128" cy="-90" rx="46.8089" ry="18"/>
<text text-anchor="middle" x="128" y="-87.2" font-family="Times,serif" font-size="11.00" fill="#000000">goal canceled</text>
</g>
<!-- planning II&#45;&gt;goal canceled -->
<g id="edge14" class="edge">
<title>planning II&#45;&gt;goal canceled</title>
<path fill="none" stroke="#000000" d="M259.7635,-149.2936C234.2936,-137.8321 196.556,-120.8502 167.9871,-107.9942"/>
<polygon fill="#000000" stroke="#000000" points="169.2365,-104.7184 158.681,-103.8064 166.3639,-111.1019 169.2365,-104.7184"/>
</g>
<!-- visualization -->
<g id="node16" class="node">
<title>visualization</title>
<ellipse fill="#c0c0c0" stroke="#000000" cx="237" cy="-90" rx="43.7956" ry="18"/>
<text text-anchor="middle" x="237" y="-87.2" font-family="Times,serif" font-size="11.00" fill="#000000">visualization</text>
</g>
<!-- planning II&#45;&gt;visualization -->
<g id="edge15" class="edge">
<title>planning II&#45;&gt;visualization</title>
<path fill="none" stroke="#000000" d="M275.6543,-144.5708C269.5603,-135.9675 262.0861,-125.4156 255.3395,-115.8911"/>
<polygon fill="#000000" stroke="#000000" points="258.0451,-113.6554 249.4088,-107.5182 252.3329,-117.7016 258.0451,-113.6554"/>
</g>
<!-- cpi marker -->
<g id="node17" class="node">
<title>cpi marker</title>
<ellipse fill="#c0c0c0" stroke="#000000" cx="338" cy="-90" rx="39.1741" ry="18"/>
<text text-anchor="middle" x="338" y="-87.2" font-family="Times,serif" font-size="11.00" fill="#000000">cpi marker</text>
</g>
<!-- planning II&#45;&gt;cpi marker -->
<g id="edge16" class="edge">
<title>planning II&#45;&gt;cpi marker</title>
<path fill="none" stroke="#000000" d="M300.1036,-144.5708C306.1224,-135.9038 313.5144,-125.2592 320.1669,-115.6796"/>
<polygon fill="#000000" stroke="#000000" points="323.1787,-117.4788 326.0079,-107.2687 317.4291,-113.486 323.1787,-117.4788"/>
</g>
<!-- planning III -->
<g id="node18" class="node">
<title>planning III</title>
<polygon fill="#00ff00" stroke="#000000" points="463,-108 395,-108 395,-72 463,-72 463,-108"/>
<text text-anchor="middle" x="429" y="-87.2" font-family="Times,serif" font-size="11.00" fill="#000000">planning III</text>
</g>
<!-- planning II&#45;&gt;planning III -->
<g id="edge17" class="edge">
<title>planning II&#45;&gt;planning III</title>
<path fill="none" stroke="#000000" d="M314.1906,-148.6261C334.2987,-138.3581 362.4942,-123.9604 385.911,-112.0029"/>
<polygon fill="#000000" stroke="#000000" points="387.6392,-115.0504 394.9535,-107.3854 384.4557,-108.8161 387.6392,-115.0504"/>
</g>
<!-- coll -->
<g id="node19" class="node">
<title>coll</title>
<ellipse fill="#c0c0c0" stroke="#000000" cx="27" cy="-18" rx="27" ry="18"/>
<text text-anchor="middle" x="27" y="-15.2" font-family="Times,serif" font-size="11.00" fill="#000000">coll</text>
</g>
<!-- planning III&#45;&gt;coll -->
<g id="edge18" class="edge">
<title>planning III&#45;&gt;coll</title>
<path fill="none" stroke="#000000" d="M394.5602,-74.588C391.6975,-73.6129 388.8202,-72.7313 386,-72 246.1799,-35.7436 201.5231,-76.9334 63,-36 61.0901,-35.4356 59.1593,-34.7738 57.2359,-34.0433"/>
<polygon fill="#000000" stroke="#000000" points="58.3783,-30.7236 47.8117,-29.9506 55.5899,-37.1443 58.3783,-30.7236"/>
</g>
<!-- simulated laser scanner -->
<g id="node20" class="node">
<title>simulated laser scanner</title>
<ellipse fill="#c0c0c0" stroke="#000000" cx="145" cy="-18" rx="73.2267" ry="18"/>
<text text-anchor="middle" x="145" y="-15.2" font-family="Times,serif" font-size="11.00" fill="#000000">simulated laser scanner</text>
</g>
<!-- planning III&#45;&gt;simulated laser scanner -->
<g id="edge19" class="edge">
<title>planning III&#45;&gt;simulated laser scanner</title>
<path fill="none" stroke="#000000" d="M394.9357,-75.103C391.9379,-73.9866 388.9302,-72.9336 386,-72 377.4942,-69.29 278.0398,-47.2479 209.5832,-32.1765"/>
<polygon fill="#000000" stroke="#000000" points="210.2411,-28.7376 199.7225,-30.0065 208.7366,-35.574 210.2411,-28.7376"/>
</g>
<!-- controller -->
<g id="node21" class="node">
<title>controller</title>
<ellipse fill="#c0c0c0" stroke="#000000" cx="272" cy="-18" rx="35.4579" ry="18"/>
<text text-anchor="middle" x="272" y="-15.2" font-family="Times,serif" font-size="11.00" fill="#000000">controller</text>
</g>
<!-- planning III&#45;&gt;controller -->
<g id="edge20" class="edge">
<title>planning III&#45;&gt;controller</title>
<path fill="none" stroke="#000000" d="M394.9333,-74.3771C369.2305,-62.5898 334.0514,-46.4567 307.9098,-34.4682"/>
<polygon fill="#000000" stroke="#000000" points="309.2706,-31.2418 298.7218,-30.2546 306.3526,-37.6046 309.2706,-31.2418"/>
</g>
<!-- kin sim -->
<g id="node22" class="node">
<title>kin sim</title>
<ellipse fill="#c0c0c0" stroke="#000000" cx="355" cy="-18" rx="29.4311" ry="18"/>
<text text-anchor="middle" x="355" y="-15.2" font-family="Times,serif" font-size="11.00" fill="#000000">kin sim</text>
</g>
<!-- planning III&#45;&gt;kin sim -->
<g id="edge21" class="edge">
<title>planning III&#45;&gt;kin sim</title>
<path fill="none" stroke="#000000" d="M410.3267,-71.8314C400.5418,-62.311 388.4693,-50.5647 378.1007,-40.4763"/>
<polygon fill="#000000" stroke="#000000" points="380.517,-37.944 370.9089,-33.479 375.6355,-42.9611 380.517,-37.944"/>
</g>
<!-- log -->
<g id="node23" class="node">
<title>log</title>
<ellipse fill="#c0c0c0" stroke="#000000" cx="429" cy="-18" rx="27" ry="18"/>
<text text-anchor="middle" x="429" y="-15.2" font-family="Times,serif" font-size="11.00" fill="#000000">log</text>
</g>
<!-- planning III&#45;&gt;log -->
<g id="edge22" class="edge">
<title>planning III&#45;&gt;log</title>
<path fill="none" stroke="#000000" d="M429,-71.8314C429,-64.131 429,-54.9743 429,-46.4166"/>
<polygon fill="#000000" stroke="#000000" points="432.5001,-46.4132 429,-36.4133 425.5001,-46.4133 432.5001,-46.4132"/>
</g>
<!-- wiggle -->
<g id="node24" class="node">
<title>wiggle</title>
<ellipse fill="#c0c0c0" stroke="#000000" cx="502" cy="-18" rx="28.0277" ry="18"/>
<text text-anchor="middle" x="502" y="-15.2" font-family="Times,serif" font-size="11.00" fill="#000000">wiggle</text>
</g>
<!-- planning III&#45;&gt;wiggle -->
<g id="edge23" class="edge">
<title>planning III&#45;&gt;wiggle</title>
<path fill="none" stroke="#000000" d="M447.421,-71.8314C456.9799,-62.4034 468.752,-50.7926 478.9131,-40.7706"/>
<polygon fill="#000000" stroke="#000000" points="481.6441,-42.993 486.306,-33.479 476.7286,-38.0092 481.6441,-42.993"/>
</g>
<!-- loop detector -->
<g id="node25" class="node">
<title>loop detector</title>
<ellipse fill="#c0c0c0" stroke="#000000" cx="593" cy="-18" rx="44.498" ry="18"/>
<text text-anchor="middle" x="593" y="-15.2" font-family="Times,serif" font-size="11.00" fill="#000000">loop detector</text>
</g>
<!-- planning III&#45;&gt;loop detector -->
<g id="edge24" class="edge">
<title>planning III&#45;&gt;loop detector</title>
<path fill="none" stroke="#000000" d="M463.3798,-74.9064C489.6779,-63.3609 525.9762,-47.4251 553.4731,-35.3533"/>
<polygon fill="#000000" stroke="#000000" points="555.0518,-38.4827 562.8012,-31.258 552.2378,-32.0732 555.0518,-38.4827"/>
</g>
<!-- goal reached -->
<g id="node26" class="node">
<title>goal reached</title>
<ellipse fill="#c0c0c0" stroke="#000000" cx="700" cy="-18" rx="44.498" ry="18"/>
<text text-anchor="middle" x="700" y="-15.2" font-family="Times,serif" font-size="11.00" fill="#000000">goal reached</text>
</g>
<!-- planning III&#45;&gt;goal reached -->
<g id="edge25" class="edge">
<title>planning III&#45;&gt;goal reached</title>
<path fill="none" stroke="#000000" d="M463.047,-82.3925C505.9627,-72.6054 581.878,-54.6346 646,-36 649.3762,-35.0188 652.8569,-33.9627 656.348,-32.8715"/>
<polygon fill="#000000" stroke="#000000" points="657.6801,-36.12 666.1355,-29.7359 655.5444,-29.4537 657.6801,-36.12"/>
</g>
<!-- time -->
<g id="node27" class="node">
<title>time</title>
<ellipse fill="#c0c0c0" stroke="#000000" cx="789" cy="-18" rx="27" ry="18"/>
<text text-anchor="middle" x="789" y="-15.2" font-family="Times,serif" font-size="11.00" fill="#000000">time</text>
</g>
<!-- planning III&#45;&gt;time -->
<g id="edge26" class="edge">
<title>planning III&#45;&gt;time</title>
<path fill="none" stroke="#000000" d="M463.3767,-87.6503C523.4264,-82.8075 650.7752,-69.2418 753,-36 754.8939,-35.3841 756.8123,-34.6823 758.7262,-33.9213"/>
<polygon fill="#000000" stroke="#000000" points="760.4066,-37.0047 768.1251,-29.7469 757.5653,-30.6073 760.4066,-37.0047"/>
</g>
<!-- plot trajectory -->
<g id="node34" class="node">
<title>plot trajectory</title>
<ellipse fill="#c0c0c0" stroke="#000000" cx="1037" cy="-162" rx="47.5114" ry="18"/>
<text text-anchor="middle" x="1037" y="-159.2" font-family="Times,serif" font-size="11.00" fill="#000000">plot trajectory</text>
</g>
<!-- post planning&#45;&gt;plot trajectory -->
<g id="edge33" class="edge">
<title>post planning&#45;&gt;plot trajectory</title>
<path fill="none" stroke="#000000" d="M1011.4045,-216.2022C1015.2868,-207.981 1019.9806,-198.041 1024.283,-188.9301"/>
<polygon fill="#000000" stroke="#000000" points="1027.4691,-190.3796 1028.5744,-179.8425 1021.1394,-187.3905 1027.4691,-190.3796"/>
</g>
<!-- evaluate result -->
<g id="node35" class="node">
<title>evaluate result</title>
<ellipse fill="#c0c0c0" stroke="#000000" cx="1152" cy="-162" rx="49.1201" ry="18"/>
<text text-anchor="middle" x="1152" y="-159.2" font-family="Times,serif" font-size="11.00" fill="#000000">evaluate result</text>
</g>
<!-- post planning&#45;&gt;evaluate result -->
<g id="edge34" class="edge">
<title>post planning&#45;&gt;evaluate result</title>
<path fill="none" stroke="#000000" d="M1031.7287,-220.1177C1054.8508,-208.9446 1087.5768,-193.1307 1113.0552,-180.819"/>
<polygon fill="#000000" stroke="#000000" points="1114.6017,-183.9589 1122.0828,-176.4566 1111.5561,-177.6562 1114.6017,-183.9589"/>
</g>
<!-- execute? -->
<g id="node38" class="node">
<title>execute?</title>
<ellipse fill="#c0c0c0" stroke="#000000" cx="940" cy="-306" rx="33.8507" ry="18"/>
<text text-anchor="middle" x="940" y="-303.2" font-family="Times,serif" font-size="11.00" fill="#000000">execute?</text>
</g>
<!-- move robot&#45;&gt;execute? -->
<g id="edge37" class="edge">
<title>move robot&#45;&gt;execute?</title>
<path fill="none" stroke="#000000" d="M940,-359.8314C940,-352.131 940,-342.9743 940,-334.4166"/>
<polygon fill="#000000" stroke="#000000" points="943.5001,-334.4132 940,-324.4133 936.5001,-334.4133 943.5001,-334.4132"/>
</g>
<!-- monitor execution -->
<g id="node39" class="node">
<title>monitor execution</title>
<ellipse fill="#c0c0c0" stroke="#000000" cx="1116" cy="-306" rx="57.9578" ry="18"/>
<text text-anchor="middle" x="1116" y="-303.2" font-family="Times,serif" font-size="11.00" fill="#000000">monitor execution</text>
</g>
<!-- move robot&#45;&gt;monitor execution -->
<g id="edge38" class="edge">
<title>move robot&#45;&gt;monitor execution</title>
<path fill="none" stroke="#000000" d="M969.856,-365.7862C997.6751,-354.4056 1039.5263,-337.2847 1071.3229,-324.277"/>
<polygon fill="#000000" stroke="#000000" points="1072.9112,-327.4089 1080.8414,-320.3831 1070.2607,-320.93 1072.9112,-327.4089"/>
</g>
<!-- goal canceled* -->
<g id="node40" class="node">
<title>goal canceled*</title>
<ellipse fill="#c0c0c0" stroke="#000000" cx="1116" cy="-234" rx="49.8222" ry="18"/>
<text text-anchor="middle" x="1116" y="-231.2" font-family="Times,serif" font-size="11.00" fill="#000000">goal canceled*</text>
</g>
<!-- monitor execution&#45;&gt;goal canceled* -->
<g id="edge39" class="edge">
<title>monitor execution&#45;&gt;goal canceled*</title>
<path fill="none" stroke="#000000" d="M1116,-287.8314C1116,-280.131 1116,-270.9743 1116,-262.4166"/>
<polygon fill="#000000" stroke="#000000" points="1119.5001,-262.4132 1116,-252.4133 1112.5001,-262.4133 1119.5001,-262.4132"/>
</g>
<!-- send traj -->
<g id="node41" class="node">
<title>send traj</title>
<ellipse fill="#c0c0c0" stroke="#000000" cx="1217" cy="-234" rx="33.1473" ry="18"/>
<text text-anchor="middle" x="1217" y="-231.2" font-family="Times,serif" font-size="11.00" fill="#000000">send traj</text>
</g>
<!-- monitor execution&#45;&gt;send traj -->
<g id="edge40" class="edge">
<title>monitor execution&#45;&gt;send traj</title>
<path fill="none" stroke="#000000" d="M1139.1714,-289.4817C1153.815,-279.0427 1172.8458,-265.4763 1188.4232,-254.3716"/>
<polygon fill="#000000" stroke="#000000" points="1190.5611,-257.1459 1196.6722,-248.4911 1186.4977,-251.4459 1190.5611,-257.1459"/>
</g>
</g>
</svg>
